<svg width="90" height="63" viewBox="0 0 90 63" fill="none" xmlns="http://www.w3.org/2000/svg">
<path d="M89.3193 21.7167L80.4813 4.60757C79.7786 3.26172 78.5838 2.24639 77.1515 1.77783C75.7192 1.30927 74.1625 1.42452 72.813 2.09902L64.4467 6.32747H58.5577L46.6994 0.903434C45.4488 0.332092 44.0375 0.231248 42.7199 0.619089L25.2285 5.77383L17.1874 1.70964C15.8378 1.0356 14.2813 0.920574 12.849 1.38905C11.4168 1.85753 10.222 2.87252 9.51879 4.21802L0.680761 21.3275C0.327404 22.0118 0.112391 22.7603 0.0482677 23.5295C-0.0158556 24.2986 0.072195 25.073 0.307282 25.8073C0.542369 26.5417 0.919784 27.2214 1.41751 27.8068C1.91523 28.3921 2.52329 28.8714 3.20621 29.2167L11.8312 33.5761L31.2476 48.924C31.8816 49.4264 32.6134 49.7876 33.3951 49.984L54.2234 55.2477C54.6753 55.3618 55.1393 55.4195 55.6051 55.4194C57.1336 55.4197 58.6001 54.8085 59.6842 53.7194L72.9081 40.3512C72.9221 40.337 72.9348 40.3215 72.9485 40.3071C72.9665 40.288 72.9841 40.2685 73.0018 40.2488C73.0211 40.2272 73.0416 40.2068 73.0604 40.1847L78.4319 33.8325L86.7939 29.606C87.4768 29.2607 88.0849 28.7814 88.5826 28.1961C89.0803 27.6107 89.4578 26.931 89.6928 26.1966C89.9279 25.4622 90.016 24.6878 89.9519 23.9187C89.8877 23.1495 89.6727 22.401 89.3193 21.7167ZM70.4165 34.3657L56.7535 24.3209C56.2563 23.9552 55.6562 23.7604 55.0414 23.765C54.4266 23.7695 53.8294 23.9733 53.3376 24.3463L48.7377 27.8338C47.2418 28.9588 45.427 29.5663 43.5626 29.5663C41.6981 29.5663 39.8833 28.9588 38.3874 27.8338L36.4396 26.3569L50.5033 12.14H57.9225C57.9268 12.14 57.9312 12.1407 57.9358 12.1407L57.9456 12.14H63.3827L73.1773 31.1009L70.4165 34.3657ZM14.616 6.9084L20.9721 10.121L12.1341 27.2305L5.77799 24.0179L14.616 6.9084ZM55.6181 49.609L34.7898 44.3454L17.0314 30.3079L26.8193 11.3594L44.3294 6.19922L47.0965 7.46491C46.8633 7.63651 46.643 7.82539 46.4375 8.02999L32.3735 22.2469C31.791 22.8358 31.3405 23.5443 31.0525 24.3245C30.7644 25.1047 30.6456 25.9383 30.704 26.7689C30.7624 27.5996 30.9967 28.4079 31.391 29.139C31.7853 29.8702 32.3304 30.5072 32.9894 31.0068L34.9375 32.4837C37.4306 34.3588 40.4552 35.3714 43.5625 35.3714C46.6699 35.3714 49.6945 34.3588 52.1875 32.4837L55.0889 30.2842L66.4631 38.6461L55.6181 49.609ZM84.2221 24.4073L77.866 27.6199L69.028 10.5103L75.3841 7.29793L84.2256 24.4053L84.2221 24.4073ZM42.0391 60.798C41.948 61.1685 41.7854 61.5172 41.5608 61.8241C41.3361 62.131 41.0538 62.3901 40.7299 62.5865C40.4061 62.7829 40.047 62.9128 39.6734 62.9687C39.2998 63.0247 38.919 63.0055 38.5527 62.9124L27.7213 60.1754C26.8425 59.952 26.028 59.523 25.3432 58.9231L17.239 51.8018C16.6635 51.2962 16.3103 50.5802 16.2571 49.8113C16.2038 49.0424 16.4549 48.2836 16.9551 47.7018C17.4553 47.12 18.1637 46.763 18.9243 46.7091C19.6849 46.6553 20.4356 46.9091 21.0111 47.4148L29.116 54.5364L39.9474 57.2738C40.3137 57.3663 40.6584 57.5309 40.9617 57.758C41.2651 57.9852 41.5212 58.2706 41.7154 58.5979C41.9097 58.9252 42.0382 59.2879 42.0937 59.6654C42.1493 60.0429 42.1307 60.4278 42.0391 60.798Z" fill="white"/>
</svg>
