<svg width="69" height="61" viewBox="0 0 69 61" fill="none" xmlns="http://www.w3.org/2000/svg">
<path d="M0.125 32.0625V47.6875C0.125 48.5163 0.45424 49.3112 1.04029 49.8972C1.62634 50.4833 2.4212 50.8125 3.25 50.8125H6.375C6.375 53.2989 7.36272 55.6835 9.12087 57.4416C10.879 59.1998 13.2636 60.1875 15.75 60.1875C18.2364 60.1875 20.621 59.1998 22.3791 57.4416C24.1373 55.6835 25.125 53.2989 25.125 50.8125H43.875C43.875 53.2989 44.8627 55.6835 46.6209 57.4416C48.379 59.1998 50.7636 60.1875 53.25 60.1875C55.7364 60.1875 58.121 59.1998 59.8791 57.4416C61.6373 55.6835 62.625 53.2989 62.625 50.8125H65.75C66.5788 50.8125 67.3737 50.4833 67.9597 49.8972C68.5458 49.3112 68.875 48.5163 68.875 47.6875V10.1875C68.875 7.7011 67.8873 5.31653 66.1291 3.55837C64.371 1.80022 61.9864 0.8125 59.5 0.8125H31.375C28.8886 0.8125 26.504 1.80022 24.7459 3.55837C22.9877 5.31653 22 7.7011 22 10.1875V16.4375H15.75C14.2946 16.4375 12.8591 16.7764 11.5574 17.4272C10.2556 18.0781 9.12325 19.0232 8.25 20.1875L0.75 30.1875C0.658598 30.3233 0.585076 30.4704 0.53125 30.625L0.34375 30.9687C0.205831 31.3173 0.131735 31.6877 0.125 32.0625ZM50.125 50.8125C50.125 50.1944 50.3083 49.5902 50.6517 49.0763C50.995 48.5624 51.4831 48.1619 52.0541 47.9254C52.6251 47.6889 53.2535 47.627 53.8597 47.7475C54.4659 47.8681 55.0227 48.1657 55.4597 48.6028C55.8968 49.0398 56.1944 49.5966 56.315 50.2028C56.4355 50.809 56.3736 51.4374 56.1371 52.0084C55.9006 52.5794 55.5001 53.0675 54.9862 53.4108C54.4723 53.7542 53.8681 53.9375 53.25 53.9375C52.4212 53.9375 51.6263 53.6083 51.0403 53.0222C50.4542 52.4362 50.125 51.6413 50.125 50.8125ZM28.25 10.1875C28.25 9.3587 28.5792 8.56384 29.1653 7.97779C29.7513 7.39174 30.5462 7.0625 31.375 7.0625H59.5C60.3288 7.0625 61.1237 7.39174 61.7097 7.97779C62.2958 8.56384 62.625 9.3587 62.625 10.1875V44.5625H60.1875C59.3088 43.5958 58.2378 42.8233 57.0431 42.2948C55.8484 41.7662 54.5564 41.4932 53.25 41.4932C51.9436 41.4932 50.6516 41.7662 49.4569 42.2948C48.2622 42.8233 47.1912 43.5958 46.3125 44.5625H28.25V10.1875ZM22 28.9375H9.5L13.25 23.9375C13.5411 23.5494 13.9185 23.2344 14.3525 23.0174C14.7864 22.8005 15.2649 22.6875 15.75 22.6875H22V28.9375ZM12.625 50.8125C12.625 50.1944 12.8083 49.5902 13.1517 49.0763C13.495 48.5624 13.9831 48.1619 14.5541 47.9254C15.1251 47.6889 15.7535 47.627 16.3597 47.7475C16.9658 47.8681 17.5227 48.1657 17.9597 48.6028C18.3967 49.0398 18.6944 49.5966 18.815 50.2028C18.9355 50.809 18.8736 51.4374 18.6371 52.0084C18.4006 52.5794 18.0001 53.0675 17.4862 53.4108C16.9723 53.7542 16.3681 53.9375 15.75 53.9375C14.9212 53.9375 14.1263 53.6083 13.5403 53.0222C12.9542 52.4362 12.625 51.6413 12.625 50.8125ZM6.375 35.1875H22V43.875C20.1557 42.2267 17.7348 41.3741 15.2647 41.5029C12.7945 41.6317 10.4754 42.7314 8.8125 44.5625H6.375V35.1875Z" fill="white"/>
</svg>
